# xmcd
#
# Track frame offsets:
#       150
#       28025
#       49114
#       64662
#       80375
#       96195
#       114927
#       130947
#       150597
#       171327
#       184132
#       206590
#       219709
#       239127
#       262907
#       278290
#
# Disc length: 3931 seconds
#
# Revision: 1
# Processed by: cddbd v1.4PL0 Copyright (c) Steve Scherf et al.
# Submitted via: MusiCat 1.1
#
DISCID=dd0f5910
DTITLE=The Eagles - Big Hits
DYEAR=1900
DGENRE=
TTITLE0=Hotel California
TTITLE1=New Kid In Town
TTITLE2=Take It Easy
TTITLE3=James Dean
TTITLE4=Desperado
TTITLE5=Heartache Tonight
TTITLE6=One Of These Nights
TTITLE7=Lyin'Eyes
TTITLE8=Life In The Fast Lane
TTITLE9=Tequila Sunrise
TTITLE10=Already Gone
TTITLE11=Seven Bridges Road
TTITLE12=Peaceful Easy Feeling
TTITLE13=Sad Café
TTITLE14=The Long Run
TTITLE15=Take It To The Limit
EXTD=0\n\n\n
EXTT0=
EXTT1=
EXTT2=
EXTT3=
EXTT4=
EXTT5=
EXTT6=
EXTT7=
EXTT8=
EXTT9=
EXTT10=
EXTT11=
EXTT12=
EXTT13=
EXTT14=
EXTT15=
PLAYORDER=
